<?xml version="1.0" encoding="UTF-8"?>
<svg width="1022px" height="131px" viewBox="0 0 1022 131" version="1.1" xmlns="http://www.w3.org/2000/svg" xmlns:xlink="http://www.w3.org/1999/xlink">
    <!-- Generator: Sketch 52.1 (67048) - http://www.bohemiancoding.com/sketch -->
    <title>logo</title>
    <desc>Created with Sketch.</desc>
    <defs>
        <path d="M46.1748588,-1.22615166e-15 L54.8251412,1.22615166e-15 C67.0783876,-1.02473318e-15 74.3556656,1.83330582 80.7927026,5.2758709 C87.2297397,8.71843598 92.281564,13.7702603 95.7241291,20.2072974 C99.1666942,26.6443344 101,33.9216124 101,46.1748588 L101,84.8251412 C101,97.0783876 99.1666942,104.355666 95.7241291,110.792703 C92.281564,117.22974 87.2297397,122.281564 80.7927026,125.724129 C74.3556656,129.166694 67.0783876,131 54.8251412,131 L46.1748588,131 C33.9216124,131 26.6443344,129.166694 20.2072974,125.724129 C13.7702603,122.281564 8.71843598,117.22974 5.2758709,110.792703 C1.83330582,104.355666 6.83155455e-16,97.0783876 -8.17434441e-16,84.8251412 L8.17434441e-16,46.1748588 C-6.83155455e-16,33.9216124 1.83330582,26.6443344 5.2758709,20.2072974 C8.71843598,13.7702603 13.7702603,8.71843598 20.2072974,5.2758709 C26.6443344,1.83330582 33.9216124,1.02473318e-15 46.1748588,-1.22615166e-15 Z" id="path-1"></path>
        <polygon id="path-3" points="4 0 29.5 0 34 72.7777778 0 72.7777778"></polygon>
    </defs>
    <g id="Page-1" stroke="none" stroke-width="1" fill="none" fill-rule="evenodd">
        <g id="Artboard-2" transform="translate(-121.000000, -512.000000)">
            <g id="logo" transform="translate(121.000000, 512.000000)">
                <text id="Counseling-Centers" font-family="ProximaNova-Bold, Proxima Nova" font-size="72" font-weight="bold" line-spacing="71" fill="#444751">
                    <tspan x="132" y="99">Counseling Centers</tspan>
                </text>
                <text id="of-Utah-Copy" font-family="ProximaNova-Regular, Proxima Nova" font-size="72" font-weight="normal" line-spacing="71" fill="#444751">
                    <tspan x="798" y="102">of Utah</tspan>
                </text>
                <g id="Group">
                    <g id="Path-2-Copy-3">
                        <mask id="mask-2" fill="white">
                            <use xlink:href="#path-1"></use>
                        </mask>
                        <path stroke="#444751" stroke-width="4" d="M46.1748588,2 C34.8785067,2 27.7053284,3.53393409 21.1504951,7.0394973 C15.061995,10.2956628 10.2956628,15.061995 7.0394973,21.1504951 C3.53393409,27.7053284 2,34.8785067 2,46.1748588 L2,84.8251412 C2,96.1214933 3.53393409,103.294672 7.0394973,109.849505 C10.2956628,115.938005 15.061995,120.704337 21.1504951,123.960503 C27.7053284,127.466066 34.8785067,129 46.1748588,129 L54.8251412,129 C66.1214933,129 73.2946716,127.466066 79.8495049,123.960503 C85.938005,120.704337 90.7043372,115.938005 93.9605027,109.849505 C97.4660659,103.294672 99,96.1214933 99,84.8251412 L99,46.1748588 C99,34.8785067 97.4660659,27.7053284 93.9605027,21.1504951 C90.7043372,15.061995 85.938005,10.2956628 79.8495049,7.0394973 C73.2946716,3.53393409 66.1214933,2 54.8251412,2 L46.1748588,2 Z"></path>
                        <path d="M2.27878847,65.2490421 C17.5701665,67.4746416 28.5373871,74.6485273 35.1804502,86.7706993 C41.8235134,98.8928713 51.8799887,100.061114 65.3498761,90.2754286 C79.3998363,81.1551975 90.1472347,80.9078194 97.5920715,89.533294 C108.759327,102.471506 86.4248164,132.057921 61.3992978,132.057921 C36.3737792,132.057921 11.8219813,131.333829 2.27878847,110.050371 C-4.08334008,95.8613994 -5.61053751,80.927623 -2.30280383,65.2490421 L2.27878847,65.2490421 Z" id="Path-2" fill="#444751" fill-rule="nonzero" mask="url(#mask-2)"></path>
                        <ellipse id="Oval-3" fill="#444751" fill-rule="nonzero" mask="url(#mask-2)" cx="98.25" cy="89.591954" rx="12.75" ry="12.7988506"></ellipse>
                        <ellipse id="Oval-3-Copy" fill="#444751" fill-rule="nonzero" mask="url(#mask-2)" cx="17.25" cy="83.0670498" rx="22.75" ry="22.8371648"></ellipse>
                        <ellipse id="Oval-3-Copy-2" fill="#444751" fill-rule="nonzero" mask="url(#mask-2)" cx="-0.25" cy="66.5038314" rx="16.75" ry="16.8141762"></ellipse>
                    </g>
                    <g id="Rectangle-2-Copy-+-Rectangle-2-Copy-2-+-Rectangle-2-Copy-3-Mask-Copy-Copy-Copy" transform="translate(33.000000, 42.662835)">
                        <mask id="mask-4" fill="white">
                            <use xlink:href="#path-3"></use>
                        </mask>
                        <use id="Mask" fill="#FFFFFF" fill-rule="nonzero" xlink:href="#path-3"></use>
                        <rect id="Rectangle-2-Copy" fill="#444751" fill-rule="nonzero" mask="url(#mask-4)" transform="translate(16.340800, 34.603711) rotate(-15.000000) translate(-16.340800, -34.603711) " x="-2.65919979" y="28.8316799" width="38" height="11.5440613"></rect>
                        <rect id="Rectangle-2-Copy-2" fill="#444751" fill-rule="nonzero" mask="url(#mask-4)" transform="translate(14.340800, 12.519419) rotate(-15.000000) translate(-14.340800, -12.519419) " x="-4.65919979" y="6.74738875" width="38" height="11.5440613"></rect>
                        <rect id="Rectangle-2-Copy-3" fill="#444751" fill-rule="nonzero" mask="url(#mask-4)" transform="translate(17.295466, 57.641611) rotate(-15.000000) translate(-17.295466, -57.641611) " x="-5.37493415" y="51.8695803" width="45.3408002" height="11.5440613"></rect>
                    </g>
                    <path d="M50,15.0498084 C46.6862915,15.0498084 44,17.7360999 44,21.0498084 L44,37.1724138 C44,40.4861223 46.6862915,43.1724138 50,43.1724138 C53.3137085,43.1724138 56,40.4861223 56,37.1724138 L56,21.0498084 C56,17.7360999 53.3137085,15.0498084 50,15.0498084 Z" id="Rectangle-3-Copy-3" stroke="#444751" stroke-width="4" fill="#FFFFFF" fill-rule="nonzero"></path>
                    <polygon id="Rectangle-2-Copy-9" fill="#444751" fill-rule="nonzero" points="34 37.6436782 66 37.6436782 64.5 45.1724138 35.5 45.1724138"></polygon>
                    <polygon id="Rectangle-2-Copy-10" fill="#444751" fill-rule="nonzero" points="40 20.5785441 60 20.5785441 61.5 26.0996169 38.5 26.0996169"></polygon>
                    <path d="M44.0944221,127.407305 C51.1732042,127.407305 77.9781047,125.907441 70.6550448,117.982967 C63.3319849,110.058493 48.3894938,121.251052 45.922324,102.437395 C43.4551541,83.623739 17.4892888,88.724372 15.9046811,95.3624436 C14.3200734,102.000515 11.0940336,121.062387 44.0944221,127.407305 Z" id="Oval-2-Copy-3" fill="#444751" fill-rule="nonzero"></path>
                    <path d="M74.71867,27.4029899 L71.0690203,29.2008851 C70.5735882,29.4449455 69.9741111,29.2411685 69.7300507,28.7457364 C69.5932659,28.4680692 69.5927739,28.1427106 69.7287181,27.8646309 L71.5249179,24.1904291 C71.6603955,23.9133038 71.6603955,23.5891643 71.5249179,23.3120391 L69.7287181,19.6378372 C69.4861574,19.1416691 69.6917468,18.5428111 70.1879149,18.3002504 C70.4659946,18.1643062 70.7913531,18.1647983 71.0690203,18.301583 L74.71867,20.0994782 C74.9972906,20.2367327 75.3238703,20.2367327 75.6024909,20.0994782 L79.2521406,18.301583 C79.7475727,18.0575226 80.3470499,18.2612997 80.5911103,18.7567318 C80.727895,19.034399 80.7283871,19.3597575 80.5924429,19.6378372 L78.7962431,23.3120391 C78.6607655,23.5891643 78.6607655,23.9133038 78.7962431,24.1904291 L80.5924429,27.8646309 C80.8350036,28.360799 80.6294142,28.959657 80.1332461,29.2022177 C79.8551664,29.3381619 79.5298079,29.3376699 79.2521406,29.2008851 L75.6024909,27.4029899 C75.3238703,27.2657355 74.9972906,27.2657355 74.71867,27.4029899 Z" id="Star-Copy-9" fill="#444751" fill-rule="nonzero" transform="translate(75.160580, 23.751234) rotate(45.000000) translate(-75.160580, -23.751234) "></path>
                    <path d="M82.5934803,43.2638519 L80.8366402,44.1293087 C80.5889242,44.2513389 80.2891856,44.1494504 80.1671554,43.9017344 C80.098763,43.7629008 80.098517,43.6002215 80.1664891,43.4611817 L81.0312261,41.6923259 C81.0989649,41.5537633 81.0989649,41.3916935 81.0312261,41.2531309 L80.1664891,39.4842752 C80.0452088,39.2361912 80.1480035,38.9367622 80.3960875,38.8154818 C80.5351273,38.7475097 80.6978066,38.7477557 80.8366402,38.8161481 L82.5934803,39.681605 C82.7327906,39.7502322 82.8960805,39.7502322 83.0353908,39.681605 L84.7922309,38.8161481 C85.039947,38.6941179 85.3396855,38.7960064 85.4617157,39.0437225 C85.5301081,39.1825561 85.5303542,39.3452354 85.462382,39.4842752 L84.5976451,41.2531309 C84.5299062,41.3916935 84.5299062,41.5537633 84.5976451,41.6923259 L85.462382,43.4611817 C85.5836624,43.7092657 85.4808677,44.0086947 85.2327836,44.129975 C85.0937438,44.1979472 84.9310645,44.1977011 84.7922309,44.1293087 L83.0353908,43.2638519 C82.8960805,43.1952247 82.7327906,43.1952247 82.5934803,43.2638519 Z" id="Star-Copy-10" fill="#444751" fill-rule="nonzero" transform="translate(82.814436, 41.472728) rotate(45.000000) translate(-82.814436, -41.472728) "></path>
                    <path d="M21.0325282,35.174646 L18.397268,36.4728313 C18.0256939,36.6558766 17.5760861,36.5030439 17.3930408,36.1314698 C17.2904522,35.9232194 17.2900831,35.6792005 17.3920413,35.4706407 L18.6891468,32.8173571 C18.790755,32.6095132 18.790755,32.3664085 18.6891468,32.1585646 L17.3920413,29.505281 C17.2101208,29.133155 17.3643129,28.6840115 17.7364389,28.502091 C17.9449987,28.4001328 18.1890176,28.4005018 18.397268,28.5030904 L21.0325282,29.8012757 C21.2414936,29.9042165 21.4864284,29.9042165 21.6953939,29.8012757 L24.3306541,28.5030904 C24.7022281,28.3200451 25.151836,28.4728779 25.3348813,28.844452 C25.4374699,29.0527024 25.4378389,29.2967213 25.3358807,29.505281 L24.0387753,32.1585646 C23.937167,32.3664085 23.937167,32.6095132 24.0387753,32.8173571 L25.3358807,35.4706407 C25.5178012,35.8427668 25.3636092,36.2919103 24.9914831,36.4738308 C24.7829234,36.575789 24.5389045,36.5754199 24.3306541,36.4728313 L21.6953939,35.174646 C21.4864284,35.0717052 21.2414936,35.0717052 21.0325282,35.174646 Z" id="Star-Copy-11" fill="#444751" fill-rule="nonzero" transform="translate(21.363961, 32.487961) rotate(45.000000) translate(-21.363961, -32.487961) "></path>
                    <ellipse id="Oval-4-Copy-3" fill="#444751" fill-rule="nonzero" cx="50" cy="21.0804598" rx="4.5" ry="4.51724138"></ellipse>
                </g>
            </g>
        </g>
    </g>
</svg>