<?xml version="1.0" encoding="UTF-8"?>
<svg width="1001px" height="129px" viewBox="0 0 1001 129" version="1.1" xmlns="http://www.w3.org/2000/svg" xmlns:xlink="http://www.w3.org/1999/xlink">
    <!-- Generator: Sketch 52.2 (67145) - http://www.bohemiancoding.com/sketch -->
    <title>logo</title>
    <desc>Created with Sketch.</desc>
    <defs>
        <path d="M45.7176819,-1.21401155e-15 L54.2823181,1.21401155e-15 C66.4142452,-1.01458731e-15 73.6194709,1.81515428 79.9927749,5.22363455 C86.3660789,8.63211483 91.3678852,13.6339211 94.7763654,20.0072251 C98.1848457,26.3805291 100,33.5857548 100,45.7176819 L100,83.2823181 C100,95.4142452 98.1848457,102.619471 94.7763654,108.992775 C91.3678852,115.366079 86.3660789,120.367885 79.9927749,123.776365 C73.6194709,127.184846 66.4142452,129 54.2823181,129 L45.7176819,129 C33.5857548,129 26.3805291,127.184846 20.0072251,123.776365 C13.6339211,120.367885 8.63211483,115.366079 5.22363455,108.992775 C1.81515428,102.619471 6.7639154e-16,95.4142452 -8.09341031e-16,83.2823181 L8.09341031e-16,45.7176819 C-6.7639154e-16,33.5857548 1.81515428,26.3805291 5.22363455,20.0072251 C8.63211483,13.6339211 13.6339211,8.63211483 20.0072251,5.22363455 C26.3805291,1.81515428 33.5857548,1.01458731e-15 45.7176819,-1.21401155e-15 Z" id="path-1"></path>
        <path d="M45.7176819,-1.21401155e-15 L54.2823181,1.21401155e-15 C66.4142452,-1.01458731e-15 73.6194709,1.81515428 79.9927749,5.22363455 C86.3660789,8.63211483 91.3678852,13.6339211 94.7763654,20.0072251 C98.1848457,26.3805291 100,33.5857548 100,45.7176819 L100,83.2823181 C100,95.4142452 98.1848457,102.619471 94.7763654,108.992775 C91.3678852,115.366079 86.3660789,120.367885 79.9927749,123.776365 C73.6194709,127.184846 66.4142452,129 54.2823181,129 L45.7176819,129 C33.5857548,129 26.3805291,127.184846 20.0072251,123.776365 C13.6339211,120.367885 8.63211483,115.366079 5.22363455,108.992775 C1.81515428,102.619471 6.7639154e-16,95.4142452 -8.09341031e-16,83.2823181 L8.09341031e-16,45.7176819 C-6.7639154e-16,33.5857548 1.81515428,26.3805291 5.22363455,20.0072251 C8.63211483,13.6339211 13.6339211,8.63211483 20.0072251,5.22363455 C26.3805291,1.81515428 33.5857548,1.01458731e-15 45.7176819,-1.21401155e-15 Z" id="path-3"></path>
        <polygon id="path-5" points="3.96039604 0 29.2079208 0 33.6633663 71.6666667 0 71.6666667"></polygon>
    </defs>
    <g id="Page-1" stroke="none" stroke-width="1" fill="none" fill-rule="evenodd">
        <g id="Artboard-2" transform="translate(-137.000000, -518.000000)">
            <g id="logo" transform="translate(137.000000, 518.000000)">
                <text id="Counseling-Centers-o" font-family="ProximaNova-Bold, Proxima Nova" font-size="72" font-weight="bold" line-spacing="71" fill="#444751">
                    <tspan x="116" y="95">Counseling Centers </tspan>
                    <tspan x="776.816" y="95.144" font-family="ProximaNova-Regular, Proxima Nova" font-weight="normal">of Utah</tspan>
                </text>
                <g id="Group-5">
                    <g id="Group">
                        <g id="Path-2-Copy-5">
                            <mask id="mask-2" fill="white">
                                <use xlink:href="#path-1"></use>
                            </mask>
                            <path stroke="#444751" stroke-width="3.96039604" d="M45.7176819,1.98019802 C34.533175,1.98019802 27.4310182,3.49894464 20.9410842,6.9697993 C14.9128663,10.1937255 10.1937255,14.9128663 6.9697993,20.9410842 C3.49894464,27.4310182 1.98019802,34.533175 1.98019802,45.7176819 L1.98019802,83.2823181 C1.98019802,94.466825 3.49894464,101.568982 6.9697993,108.058916 C10.1937255,114.087134 14.9128663,118.806274 20.9410842,122.030201 C27.4310182,125.501055 34.533175,127.019802 45.7176819,127.019802 L54.2823181,127.019802 C65.466825,127.019802 72.5689818,125.501055 79.0589158,122.030201 C85.0871337,118.806274 89.8062745,114.087134 93.0302007,108.058916 C96.5010554,101.568982 98.019802,94.466825 98.019802,83.2823181 L98.019802,45.7176819 C98.019802,34.533175 96.5010554,27.4310182 93.0302007,20.9410842 C89.8062745,14.9128663 85.0871337,10.1937255 79.0589158,6.9697993 C72.5689818,3.49894464 65.466825,1.98019802 54.2823181,1.98019802 L45.7176819,1.98019802 Z"></path>
                            <ellipse id="Oval-3" fill="#B0CACC" fill-rule="nonzero" mask="url(#mask-2)" cx="89.3564356" cy="72.408046" rx="12.6237624" ry="12.6034483"></ellipse>
                            <ellipse id="Oval-3-Copy-4" fill="#B0CACC" fill-rule="nonzero" mask="url(#mask-2)" cx="32.9207921" cy="60.545977" rx="12.6237624" ry="12.6034483"></ellipse>
                            <ellipse id="Oval-3-Copy-3" fill="#B0CACC" fill-rule="nonzero" mask="url(#mask-2)" cx="73.019802" cy="86.2471264" rx="16.5841584" ry="16.5574713"></ellipse>
                            <ellipse id="Oval-3-Copy-5" fill="#B0CACC" fill-rule="nonzero" mask="url(#mask-2)" cx="12.6237624" cy="47.6954023" rx="16.5841584" ry="16.5574713"></ellipse>
                            <path d="M2.2562262,64.2528736 C17.3962045,66.4444944 28.2548387,73.5088551 34.8321289,85.4459558 C41.4094192,97.3830565 51.3663254,98.5334638 64.7028476,88.8971777 C78.6136993,79.9161869 89.2546879,79.6725855 96.6258133,88.1663735 C107.682502,100.907056 85.5691251,130.041769 60.791384,130.041769 C36.0136428,130.041769 11.704932,129.328732 2.2562262,108.370213 C-4.04291097,94.3978666 -5.55498763,79.6920868 -2.28000379,64.2528736 L2.2562262,64.2528736 Z" id="Path-2" fill="#444751" fill-rule="nonzero" mask="url(#mask-2)"></path>
                            <ellipse id="Oval-3" fill="#444751" fill-rule="nonzero" mask="url(#mask-2)" cx="97.2772277" cy="88.2241379" rx="12.6237624" ry="12.6034483"></ellipse>
                            <ellipse id="Oval-3-Copy" fill="#444751" fill-rule="nonzero" mask="url(#mask-2)" cx="17.0792079" cy="81.7988506" rx="22.5247525" ry="22.4885057"></ellipse>
                            <ellipse id="Oval-3-Copy-2" fill="#444751" fill-rule="nonzero" mask="url(#mask-2)" cx="-0.247524752" cy="65.4885057" rx="16.5841584" ry="16.5574713"></ellipse>
                            <mask id="mask-4" fill="white">
                                <use xlink:href="#path-3"></use>
                            </mask>
                            <path stroke="#444751" stroke-width="3.96039604" d="M45.7176819,1.98019802 C34.533175,1.98019802 27.4310182,3.49894464 20.9410842,6.9697993 C14.9128663,10.1937255 10.1937255,14.9128663 6.9697993,20.9410842 C3.49894464,27.4310182 1.98019802,34.533175 1.98019802,45.7176819 L1.98019802,83.2823181 C1.98019802,94.466825 3.49894464,101.568982 6.9697993,108.058916 C10.1937255,114.087134 14.9128663,118.806274 20.9410842,122.030201 C27.4310182,125.501055 34.533175,127.019802 45.7176819,127.019802 L54.2823181,127.019802 C65.466825,127.019802 72.5689818,125.501055 79.0589158,122.030201 C85.0871337,118.806274 89.8062745,114.087134 93.0302007,108.058916 C96.5010554,101.568982 98.019802,94.466825 98.019802,83.2823181 L98.019802,45.7176819 C98.019802,34.533175 96.5010554,27.4310182 93.0302007,20.9410842 C89.8062745,14.9128663 85.0871337,10.1937255 79.0589158,6.9697993 C72.5689818,3.49894464 65.466825,1.98019802 54.2823181,1.98019802 L45.7176819,1.98019802 Z"></path>
                        </g>
                        <g id="Rectangle-2-Copy-+-Rectangle-2-Copy-2-+-Rectangle-2-Copy-3-Mask-Copy-Copy-Copy-Copy-Copy" transform="translate(32.673267, 42.011494)">
                            <mask id="mask-6" fill="white">
                                <use xlink:href="#path-5"></use>
                            </mask>
                            <use id="Mask" fill="#83A4C8" fill-rule="nonzero" xlink:href="#path-5"></use>
                            <polygon id="Rectangle" fill="#C8D6E6" fill-rule="nonzero" mask="url(#mask-6)" transform="translate(3.960396, 34.598019) rotate(4.000000) translate(-3.960396, -34.598019) " points="-0.491156361 0.000228341402 8.41966495 -0.000769485542 8.41190408 69.1951755 -0.498917237 69.1961733"></polygon>
                            <polygon id="Rectangle-2-Copy" fill="#444751" fill-rule="nonzero" mask="url(#mask-6)" transform="translate(16.179010, 34.075410) rotate(-15.000000) translate(-16.179010, -34.075410) " points="-2.63313356 28.3833199 34.9865731 28.3984559 34.9911538 39.7674994 -2.62855293 39.7523634"></polygon>
                            <polygon id="Rectangle-2-Copy-2" fill="#444751" fill-rule="nonzero" mask="url(#mask-6)" transform="translate(14.198812, 12.328283) rotate(-15.000000) translate(-14.198812, -12.328283) " points="-4.61333158 6.6361935 33.0063751 6.65132949 33.0109558 18.020373 -4.60875095 18.005237"></polygon>
                            <polygon id="Rectangle-2-Copy-3" fill="#444751" fill-rule="nonzero" mask="url(#mask-6)" transform="translate(17.124224, 56.761586) rotate(-15.000000) translate(-17.124224, -56.761586) " points="-5.32158772 51.0680347 39.5654545 51.0860946 39.5700352 62.4551381 -5.31700709 62.4370781"></polygon>
                            <polygon id="Rectangle" fill="#C8D6E6" fill-rule="nonzero" style="mix-blend-mode: screen;" opacity="0.100000001" mask="url(#mask-6)" transform="translate(3.960396, 34.598019) rotate(4.000000) translate(-3.960396, -34.598019) " points="-0.491156361 0.000228341402 8.41966495 -0.000769485542 8.41190408 69.1951755 -0.498917237 69.1961733"></polygon>
                        </g>
                        <path d="M49.5049505,14.8307727 C46.224051,14.8307727 43.5643564,17.4904673 43.5643564,20.7713668 L43.5643564,36.5619665 C43.5643564,39.842866 46.224051,42.5025606 49.5049505,42.5025606 C52.78585,42.5025606 55.4455446,39.842866 55.4455446,36.5619665 L55.4455446,20.7713668 C55.4455446,17.4904673 52.78585,14.8307727 49.5049505,14.8307727 Z" id="Rectangle-3-Copy-5" stroke="#444751" stroke-width="3.96039604" fill-rule="nonzero"></path>
                        <rect id="Rectangle" fill-rule="nonzero" x="45.5445545" y="31.6321839" width="7.92079208" height="5.43678161"></rect>
                        <polygon id="Rectangle-2-Copy-13" fill="#444751" fill-rule="nonzero" points="33.6633663 37.0689655 65.3465347 37.0689655 63.8613861 44.4827586 35.1485149 44.4827586"></polygon>
                        <polygon id="Rectangle-2-Copy-14" fill="#444751" fill-rule="nonzero" points="39.6039604 20.2643678 59.4059406 20.2643678 60.8910891 25.7011494 38.1188119 25.7011494"></polygon>
                        <path d="M43.703243,125.54023 C50.722984,125.54023 77.3043162,124.060188 70.0423349,116.240445 C62.7803535,108.420702 47.9624914,119.465338 45.5158992,100.900326 C43.0693069,82.3353146 17.3200118,87.3685367 15.7486207,93.9188785 C14.1772295,100.46922 10.9780968,119.279167 43.703243,125.54023 Z" id="Oval-2-Copy-5" fill="#444751" fill-rule="nonzero"></path>
                        <path d="M73.8040988,22.7914387 L70.3319114,24.4975054 C69.8411379,24.738648 69.2478027,24.5362822 69.0066601,24.0455087 C68.8713601,23.7701461 68.8713601,23.4476166 69.0066601,23.1722541 L70.7127268,19.7000666 C70.8478757,19.4250117 70.8480344,19.1028758 70.7131566,18.8276878 L69.0104698,15.3537348 C68.7698109,14.862724 68.9727612,14.2695884 69.4637721,14.0289295 C69.7386523,13.8942026 70.0603948,13.8942026 70.3352751,14.0289295 L73.8092281,15.7316164 C74.0844161,15.8664941 74.4065519,15.8663354 74.6816069,15.7311866 L78.1537943,14.0251199 C78.6445678,13.7839773 79.237903,13.9863431 79.4790456,14.4771166 C79.6143456,14.7524791 79.6143456,15.0750086 79.4790456,15.3503712 L77.7729789,18.8225586 C77.63783,19.0976136 77.6376713,19.4197494 77.7725491,19.6949374 L79.4752359,23.1688904 C79.7158948,23.6599013 79.5129445,24.2530368 79.0219336,24.4936957 C78.7470533,24.6284226 78.4253109,24.6284226 78.1504306,24.4936957 L74.6764776,22.7910089 C74.4012896,22.6561311 74.0791538,22.6562898 73.8040988,22.7914387 Z" id="Star-Copy-15" fill="#444751" fill-rule="nonzero" transform="translate(74.242853, 19.261313) rotate(45.000000) translate(-74.242853, -19.261313) "></path>
                        <path d="M81.8490001,38.7568377 L80.049167,39.6411896 C79.8037803,39.7617609 79.5071126,39.660578 79.3865413,39.4151912 C79.3188913,39.27751 79.3188913,39.1162452 79.3865413,38.9785639 L80.2708932,37.1787308 C80.3384676,37.0412033 80.338547,36.8801354 80.2711081,36.7425414 L79.3885488,34.9418759 C79.2682193,34.6963704 79.3696945,34.3998027 79.6151999,34.2794732 C79.7526401,34.2121097 79.9135113,34.2121097 80.0509514,34.2794732 L81.851617,35.1620325 C81.989211,35.2294714 82.1502789,35.229392 82.2878064,35.1618176 L84.0876395,34.2774658 C84.3330263,34.1568944 84.6296939,34.2580774 84.7502652,34.5034641 C84.8179152,34.6411454 84.8179152,34.8024101 84.7502652,34.9400914 L83.8659133,36.7399245 C83.7983389,36.877452 83.7982595,37.0385199 83.8656984,37.1761139 L84.7482577,38.9767795 C84.8685872,39.2222849 84.767112,39.5188527 84.5216066,39.6391821 C84.3841664,39.7065456 84.2232952,39.7065456 84.0858551,39.6391821 L82.2851895,38.7566228 C82.1475955,38.689184 81.9865276,38.6892633 81.8490001,38.7568377 Z" id="Star-Copy-16" fill="#444751" fill-rule="nonzero" transform="translate(82.068403, 36.959328) rotate(45.000000) translate(-82.068403, -36.959328) "></path>
                        <path d="M25.7738662,27.7200158 L23.1697256,28.9995658 C22.8016455,29.1804228 22.3566441,29.0286484 22.1757871,28.6605683 C22.0743121,28.4540464 22.0743121,28.2121493 22.1757871,28.0056273 L23.4553372,25.4014868 C23.5566988,25.1951955 23.5568179,24.9535937 23.4556595,24.7472027 L22.1786444,22.1417379 C21.9981502,21.7734798 22.150363,21.3286281 22.5186211,21.1481339 C22.7247813,21.0470887 22.9660882,21.0470887 23.1722484,21.1481339 L25.7777131,22.4251491 C25.9841041,22.5263074 26.225706,22.5261884 26.4319972,22.4248267 L29.0361378,21.1452767 C29.4042179,20.9644197 29.8492193,21.1161941 30.0300763,21.4842742 C30.1315513,21.6907961 30.1315513,21.9326932 30.0300763,22.1392152 L28.7505262,24.7433557 C28.6491646,24.949647 28.6490456,25.1912488 28.7502039,25.3976398 L30.027219,28.0031046 C30.2077132,28.3713627 30.0555004,28.8162144 29.6872423,28.9967086 C29.4810821,29.0977538 29.2397752,29.0977538 29.033615,28.9967086 L26.4281503,27.7196934 C26.2217593,27.6185351 25.9801574,27.6186541 25.7738662,27.7200158 Z" id="Star-Copy-17" fill="#444751" fill-rule="nonzero" transform="translate(26.102932, 25.072421) rotate(45.000000) translate(-26.102932, -25.072421) "></path>
                        <ellipse id="Oval-4-Copy-5" fill="#444751" fill-rule="nonzero" cx="49.5049505" cy="20.7586207" rx="4.45544554" ry="4.44827586"></ellipse>
                    </g>
                </g>
            </g>
        </g>
    </g>
</svg>